<svg xmlns="http://www.w3.org/2000/svg" viewBox="0 0 32 32" role="img" aria-label="Cogworks">
  <rect width="32" height="32" rx="7" fill="#0f1f3a"/>
  <g transform="translate(16 16) scale(0.92)" fill="none" stroke="#B6D14A" stroke-width="1.6" stroke-linejoin="round">
    <path d="M8.6,0.2L12.9,1.1L12.6,2.9L8.2,2.5L6.8,5.2L9.8,8.5L8.5,9.8L5.2,6.8L2.5,8.2L2.9,12.6L1.1,12.9L0.2,8.6L-2.8,8.1L-5.1,11.9L-6.7,11.1L-4.9,7.0L-7.0,4.9L-11.1,6.7L-11.9,5.1L-8.1,2.8L-8.6,-0.2L-12.9,-1.1L-12.6,-2.9L-8.2,-2.5L-6.8,-5.2L-9.8,-8.5L-8.5,-9.8L-5.2,-6.8L-2.5,-8.2L-2.9,-12.6L-1.1,-12.9L-0.2,-8.6L2.8,-8.1L5.1,-11.9L6.7,-11.1L4.9,-7.0L7.0,-4.9L11.1,-6.7L11.9,-5.1L8.1,-2.8Z"/>
    <circle r="4"/>
    <circle r="1.9" fill="#B6D14A" stroke="none"/>
  </g>
</svg>
